<svg width="322" height="453" viewBox="0 0 322 453" fill="none" xmlns="http://www.w3.org/2000/svg">
<path d="M10.14 12.96C10.14 15.16 8.38 17.14 5.2 17.14C2.3 17.14 0.0600001 15.62 0.0200001 12.98H3.02C3.1 14.1 3.84 14.84 5.14 14.84C6.46 14.84 7.24 14.14 7.24 13.14C7.24 10.12 0.04 11.94 0.0600001 6.88C0.0600001 4.36 2.1 2.84 4.98 2.84C7.84 2.84 9.8 4.3 9.98 6.82H6.9C6.84 5.9 6.1 5.18 4.9 5.16C3.8 5.12 2.98 5.66 2.98 6.8C2.98 9.6 10.14 8.04 10.14 12.96ZM17.3275 8.04C15.9875 8.04 14.9275 8.9 14.7075 10.42H19.9675C19.9275 8.96 18.7675 8.04 17.3275 8.04ZM22.5875 13.52C21.9875 15.56 20.1475 17.18 17.4075 17.18C14.1875 17.18 11.8475 14.94 11.8475 11.46C11.8475 7.96 14.1275 5.74 17.4075 5.74C20.6075 5.74 22.8675 7.92 22.8675 11.22C22.8675 11.58 22.8475 11.94 22.7875 12.3H14.6875C14.8275 13.94 15.9475 14.86 17.3475 14.86C18.5475 14.86 19.2075 14.26 19.5675 13.52H22.5875ZM14.9475 3.1L19.5475 0.72V3L14.9475 5.1V3.1ZM24.9113 17V2.2H27.7113V17H24.9113ZM35.2377 8.04C33.8977 8.04 32.8377 8.9 32.6177 10.42H37.8777C37.8377 8.96 36.6777 8.04 35.2377 8.04ZM40.4977 13.52C39.8977 15.56 38.0577 17.18 35.3177 17.18C32.0977 17.18 29.7577 14.94 29.7577 11.46C29.7577 7.96 32.0377 5.74 35.3177 5.74C38.5177 5.74 40.7777 7.92 40.7777 11.22C40.7777 11.58 40.7577 11.94 40.6977 12.3H32.5977C32.7377 13.94 33.8577 14.86 35.2577 14.86C36.4577 14.86 37.1177 14.26 37.4777 13.52H40.4977ZM42.1014 11.46C42.1014 7.98 44.3814 5.74 47.5814 5.74C50.3414 5.74 52.2014 7.18 52.8014 9.66H49.7814C49.4614 8.72 48.7214 8.12 47.5614 8.12C46.0014 8.12 44.9614 9.3 44.9614 11.46C44.9614 13.62 46.0014 14.78 47.5614 14.78C48.7214 14.78 49.4414 14.26 49.7814 13.26H52.8014C52.2014 15.62 50.3414 17.18 47.5814 17.18C44.3814 17.18 42.1014 14.94 42.1014 11.46ZM55.2927 13.56V8.22H53.9727V5.92H55.2927V3.18H58.1127V5.92H60.5927V8.22H58.1127V13.58C58.1127 14.32 58.4127 14.64 59.2927 14.64H60.5927V17H58.8327C56.7127 17 55.2927 16.1 55.2927 13.56ZM62.6066 17V5.92H65.4066V17H62.6066ZM64.0266 4.6C63.0266 4.6 62.3066 3.88 62.3066 2.96C62.3066 2.04 63.0266 1.32 64.0266 1.32C65.0066 1.32 65.7466 2.04 65.7466 2.96C65.7466 3.88 65.0066 4.6 64.0266 4.6ZM78.873 11.46C78.873 14.94 76.313 17.18 73.093 17.18C69.893 17.18 67.473 14.94 67.473 11.46C67.473 7.96 69.973 5.74 73.173 5.74C76.373 5.74 78.873 7.96 78.873 11.46ZM70.313 11.46C70.313 13.66 71.593 14.74 73.093 14.74C74.573 14.74 75.993 13.66 75.993 11.46C75.993 9.24 74.613 8.18 73.133 8.18C71.653 8.18 70.313 9.24 70.313 11.46ZM88.6869 17V10.88C88.6869 9.1 87.7069 8.14 86.2269 8.14C84.7069 8.14 83.7269 9.1 83.7269 10.88V17H80.9269V5.92H83.7269V7.3C84.4469 6.36 85.6469 5.76 87.0669 5.76C89.6469 5.76 91.4869 7.44 91.4869 10.5V17H88.6869ZM101.91 17V10.88C101.91 9.1 100.93 8.14 99.4495 8.14C97.9295 8.14 96.9495 9.1 96.9495 10.88V17H94.1495V5.92H96.9495V7.3C97.6695 6.36 98.8695 5.76 100.29 5.76C102.87 5.76 104.71 7.44 104.71 10.5V17H101.91ZM112.132 8.04C110.792 8.04 109.732 8.9 109.512 10.42H114.772C114.732 8.96 113.572 8.04 112.132 8.04ZM117.392 13.52C116.792 15.56 114.952 17.18 112.212 17.18C108.992 17.18 106.652 14.94 106.652 11.46C106.652 7.96 108.932 5.74 112.212 5.74C115.412 5.74 117.672 7.92 117.672 11.22C117.672 11.58 117.652 11.94 117.592 12.3H109.492C109.632 13.94 110.752 14.86 112.152 14.86C113.352 14.86 114.012 14.26 114.372 13.52H117.392ZM122.516 11.48V17H119.716V5.92H122.516V7.64C123.216 6.5 124.376 5.76 125.916 5.76V8.7H125.176C123.516 8.7 122.516 9.34 122.516 11.48ZM143.028 5.92V17H140.208V15.6C139.508 16.54 138.288 17.14 136.908 17.14C134.328 17.14 132.468 15.46 132.468 12.42V5.92H135.268V12.02C135.268 13.8 136.248 14.76 137.728 14.76C139.248 14.76 140.208 13.8 140.208 12.02V5.92H143.028ZM153.55 17V10.88C153.55 9.1 152.57 8.14 151.09 8.14C149.57 8.14 148.59 9.1 148.59 10.88V17H145.79V5.92H148.59V7.3C149.31 6.36 150.51 5.76 151.93 5.76C154.51 5.76 156.35 7.44 156.35 10.5V17H153.55ZM165.198 4.6C164.178 4.6 163.458 3.88 163.458 2.96C163.458 2.04 164.178 1.32 165.198 1.32C166.178 1.32 166.898 2.04 166.898 2.96C166.898 3.88 166.178 4.6 165.198 4.6ZM163.778 5.92H166.578V18.82C166.578 21.38 165.198 22.28 163.058 22.28H161.818V19.9H162.618C163.478 19.9 163.778 19.58 163.778 18.84V5.92ZM180.045 11.46C180.045 14.94 177.485 17.18 174.265 17.18C171.065 17.18 168.645 14.94 168.645 11.46C168.645 7.96 171.145 5.74 174.345 5.74C177.545 5.74 180.045 7.96 180.045 11.46ZM171.485 11.46C171.485 13.66 172.765 14.74 174.265 14.74C175.745 14.74 177.165 13.66 177.165 11.46C177.165 9.24 175.785 8.18 174.305 8.18C172.825 8.18 171.485 9.24 171.485 11.46ZM192.559 5.92V17H189.739V15.6C189.039 16.54 187.819 17.14 186.439 17.14C183.859 17.14 181.999 15.46 181.999 12.42V5.92H184.799V12.02C184.799 13.8 185.779 14.76 187.259 14.76C188.779 14.76 189.739 13.8 189.739 12.02V5.92H192.559ZM198.121 11.48V17H195.321V5.92H198.121V7.64C198.821 6.5 199.981 5.76 201.521 5.76V8.7H200.781C199.121 8.7 198.121 9.34 198.121 11.48ZM212.933 8.04C211.593 8.04 210.533 8.9 210.313 10.42H215.573C215.533 8.96 214.373 8.04 212.933 8.04ZM218.193 13.52C217.593 15.56 215.753 17.18 213.013 17.18C209.793 17.18 207.453 14.94 207.453 11.46C207.453 7.96 209.733 5.74 213.013 5.74C216.213 5.74 218.473 7.92 218.473 11.22C218.473 11.58 218.453 11.94 218.393 12.3H210.293C210.433 13.94 211.553 14.86 212.953 14.86C214.153 14.86 214.813 14.26 215.173 13.52H218.193ZM220.957 13.56V8.22H219.637V5.92H220.957V3.18H223.777V5.92H226.257V8.22H223.777V13.58C223.777 14.32 224.077 14.64 224.957 14.64H226.257V17H224.497C222.377 17 220.957 16.1 220.957 13.56ZM243.496 5.92V17H240.676V15.6C239.976 16.54 238.756 17.14 237.376 17.14C234.796 17.14 232.936 15.46 232.936 12.42V5.92H235.736V12.02C235.736 13.8 236.716 14.76 238.196 14.76C239.716 14.76 240.676 13.8 240.676 12.02V5.92H243.496ZM254.019 17V10.88C254.019 9.1 253.039 8.14 251.559 8.14C250.039 8.14 249.059 9.1 249.059 10.88V17H246.259V5.92H249.059V7.3C249.779 6.36 250.979 5.76 252.399 5.76C254.979 5.76 256.819 7.44 256.819 10.5V17H254.019ZM264.242 8.04C262.902 8.04 261.842 8.9 261.622 10.42H266.882C266.842 8.96 265.682 8.04 264.242 8.04ZM269.502 13.52C268.902 15.56 267.062 17.18 264.322 17.18C261.102 17.18 258.762 14.94 258.762 11.46C258.762 7.96 261.042 5.74 264.322 5.74C267.522 5.74 269.782 7.92 269.782 11.22C269.782 11.58 269.762 11.94 269.702 12.3H261.602C261.742 13.94 262.862 14.86 264.262 14.86C265.462 14.86 266.122 14.26 266.482 13.52H269.502ZM275.871 11.42C275.871 7.96 278.111 5.74 280.951 5.74C282.411 5.74 283.811 6.42 284.571 7.46V2.2H287.411V17H284.571V15.36C283.911 16.38 282.671 17.18 280.931 17.18C278.111 17.18 275.871 14.88 275.871 11.42ZM284.591 11.46C284.591 9.36 283.191 8.2 281.651 8.2C280.151 8.2 278.731 9.32 278.731 11.42C278.731 13.52 280.151 14.72 281.651 14.72C283.191 14.72 284.591 13.56 284.591 11.46ZM289.426 11.42C289.426 7.96 291.666 5.74 294.486 5.74C296.266 5.74 297.486 6.58 298.146 7.5V5.92H300.966V17H298.146V15.38C297.486 16.34 296.226 17.18 294.466 17.18C291.666 17.18 289.426 14.88 289.426 11.42ZM298.146 11.46C298.146 9.36 296.746 8.2 295.206 8.2C293.706 8.2 292.286 9.32 292.286 11.42C292.286 13.52 293.706 14.72 295.206 14.72C296.746 14.72 298.146 13.56 298.146 11.46ZM304.14 13.56V8.22H302.82V5.92H304.14V3.18H306.96V5.92H309.44V8.22H306.96V13.58C306.96 14.32 307.26 14.64 308.14 14.64H309.44V17H307.68C305.56 17 304.14 16.1 304.14 13.56ZM316.214 8.04C314.874 8.04 313.814 8.9 313.594 10.42H318.854C318.814 8.96 317.654 8.04 316.214 8.04ZM321.474 13.52C320.874 15.56 319.034 17.18 316.294 17.18C313.074 17.18 310.734 14.94 310.734 11.46C310.734 7.96 313.014 5.74 316.294 5.74C319.494 5.74 321.754 7.92 321.754 11.22C321.754 11.58 321.734 11.94 321.674 12.3H313.574C313.714 13.94 314.834 14.86 316.234 14.86C317.434 14.86 318.094 14.26 318.454 13.52H321.474Z" fill="#383838"/>
<circle cx="221" cy="79" r="13" fill="#F0E7D5"/>
<circle cx="202.5" cy="293.5" r="16.5" fill="#CA8702"/>
<circle cx="26.5" cy="333.5" r="16.5" fill="#F0E7D5"/>
<circle cx="69.5" cy="333.5" r="16.5" fill="#F0E7D5"/>
<circle cx="115.5" cy="333.5" r="16.5" fill="#F0E7D5"/>
<circle cx="159.5" cy="333.5" r="16.5" fill="#F0E7D5"/>
<circle cx="99" cy="79" r="13" transform="rotate(-180 99 79)" fill="#F0E7D5"/>
<path d="M11.05 446.402V440.242H12.324V446.416C12.324 448.208 13.29 448.978 14.732 448.978C16.174 448.978 17.126 448.208 17.126 446.416V440.242H18.4V446.402C18.4 448.936 16.734 450.098 14.718 450.098C12.702 450.098 11.05 448.936 11.05 446.402ZM19.9233 441.278V440.242H26.5313V441.278H23.8713V450H22.5973V441.278H19.9233ZM27.6235 445.114C27.6235 442.188 29.7655 440.116 32.4955 440.116C34.6095 440.116 36.2895 441.18 37.0175 443.07H35.4915C34.9595 441.894 33.9235 441.236 32.4955 441.236C30.4515 441.236 28.9255 442.72 28.9255 445.114C28.9255 447.494 30.4515 448.978 32.4955 448.978C33.9235 448.978 34.9595 448.32 35.4915 447.158H37.0175C36.2895 449.034 34.6095 450.084 32.4955 450.084C29.7655 450.084 27.6235 448.04 27.6235 445.114ZM42.0219 441.306H43.2119V444.344H46.1939V445.422H43.2119V448.446H42.0219V445.422H39.0539V444.344H42.0219V441.306ZM49.2686 450V441.04H47.9246V439.878H50.5566V450H49.2686ZM61.2934 452.604H59.9634C58.1854 450.854 57.1214 448.026 57.1214 444.876C57.1214 441.712 58.1854 438.758 60.1734 436.924H61.5034V437.05C59.3474 439.08 58.3534 442.02 58.3534 444.876C58.3534 447.718 59.3474 450.476 61.2934 452.478V452.604ZM63.8428 450V441.04H62.4988V439.878H65.1308V450H63.8428ZM67.2912 442.426C67.4172 440.69 68.7332 439.682 70.6092 439.682C72.5832 439.682 73.6612 440.83 73.6612 442.286C73.6612 443.448 72.9332 444.358 71.8692 444.596V444.666C73.0452 444.946 73.8432 445.814 73.8432 447.27C73.8432 448.838 72.7512 450.07 70.6372 450.07C68.7192 450.07 67.2912 449.048 67.1372 447.088H68.3692C68.4952 448.166 69.2792 448.992 70.6232 448.992C71.9812 448.992 72.6252 448.194 72.6252 447.158C72.6252 445.73 71.6312 445.184 69.8112 445.184H69.4892V444.12H69.8252C71.5192 444.106 72.4292 443.588 72.4292 442.412C72.4292 441.446 71.7852 440.774 70.5672 440.774C69.3772 440.774 68.6632 441.446 68.5372 442.426H67.2912ZM77.0193 449.216C77.0193 449.706 76.6413 450.084 76.1793 450.084C75.6893 450.084 75.3113 449.706 75.3113 449.216C75.3113 448.726 75.6893 448.348 76.1793 448.348C76.6413 448.348 77.0193 448.726 77.0193 449.216ZM77.0193 443.224C77.0193 443.714 76.6413 444.092 76.1793 444.092C75.6893 444.092 75.3113 443.714 75.3113 443.224C75.3113 442.734 75.6893 442.356 76.1793 442.356C76.6413 442.356 77.0193 442.734 77.0193 443.224ZM78.5438 444.834C78.5438 441.936 79.2718 439.724 82.0718 439.724C84.8578 439.724 85.5858 441.936 85.5858 444.834C85.5858 447.774 84.8578 450 82.0718 450C79.2718 450 78.5438 447.774 78.5438 444.834ZM84.3258 444.834C84.3258 442.734 84.0598 440.886 82.0718 440.886C80.0698 440.886 79.8038 442.734 79.8038 444.834C79.8038 447.018 80.0698 448.838 82.0718 448.838C84.0598 448.838 84.3258 447.018 84.3258 444.834ZM87.3348 444.834C87.3348 441.936 88.0628 439.724 90.8628 439.724C93.6488 439.724 94.3768 441.936 94.3768 444.834C94.3768 447.774 93.6488 450 90.8628 450C88.0628 450 87.3348 447.774 87.3348 444.834ZM93.1168 444.834C93.1168 442.734 92.8508 440.886 90.8628 440.886C88.8608 440.886 88.5948 442.734 88.5948 444.834C88.5948 447.018 88.8608 448.838 90.8628 448.838C92.8508 448.838 93.1168 447.018 93.1168 444.834ZM95.9298 452.604V452.478C97.8758 450.476 98.8698 447.718 98.8698 444.876C98.8698 442.02 97.8758 439.08 95.7198 437.05V436.924H97.0498C99.0378 438.758 100.102 441.712 100.102 444.876C100.102 448.026 99.0378 450.854 97.2598 452.604H95.9298Z" fill="#383838"/>
<path d="M10.966 416V406.228H17V407.81H12.926V410.316H16.048V411.87H12.926V416H10.966ZM25.7118 408.244V416H23.7378V415.02C23.2478 415.678 22.3938 416.098 21.4278 416.098C19.6218 416.098 18.3198 414.922 18.3198 412.794V408.244H20.2798V412.514C20.2798 413.76 20.9658 414.432 22.0018 414.432C23.0658 414.432 23.7378 413.76 23.7378 412.514V408.244H25.7118ZM33.6657 413.788C33.6657 415.118 32.5037 416.126 30.6137 416.126C28.6677 416.126 27.3097 414.992 27.2257 413.55H29.1997C29.2697 414.138 29.8157 414.586 30.5997 414.586C31.3697 414.586 31.7897 414.236 31.7897 413.788C31.7897 412.402 27.4077 413.284 27.4077 410.442C27.4077 409.154 28.5557 408.118 30.4737 408.118C32.3497 408.118 33.4837 409.14 33.5957 410.68H31.7197C31.6637 410.078 31.1877 409.672 30.4177 409.672C29.6897 409.672 29.3117 409.966 29.3117 410.414C29.3117 411.828 33.6097 410.946 33.6657 413.788ZM38.6066 409.728C37.6686 409.728 36.9266 410.33 36.7726 411.394H40.4546C40.4266 410.372 39.6146 409.728 38.6066 409.728ZM42.2886 413.564C41.8686 414.992 40.5806 416.126 38.6626 416.126C36.4086 416.126 34.7706 414.558 34.7706 412.122C34.7706 409.672 36.3666 408.118 38.6626 408.118C40.9026 408.118 42.4846 409.644 42.4846 411.954C42.4846 412.206 42.4706 412.458 42.4286 412.71H36.7586C36.8566 413.858 37.6406 414.502 38.6206 414.502C39.4606 414.502 39.9226 414.082 40.1746 413.564H42.2886ZM43.4112 412.094C43.4112 409.672 44.9792 408.118 46.9532 408.118C48.1992 408.118 49.0532 408.706 49.5152 409.35V408.244H51.4892V416H49.5152V414.866C49.0532 415.538 48.1712 416.126 46.9392 416.126C44.9792 416.126 43.4112 414.516 43.4112 412.094ZM49.5152 412.122C49.5152 410.652 48.5352 409.84 47.4572 409.84C46.4072 409.84 45.4132 410.624 45.4132 412.094C45.4132 413.564 46.4072 414.404 47.4572 414.404C48.5352 414.404 49.5152 413.592 49.5152 412.122ZM60.7255 408.244V416H58.7515V415.02C58.2615 415.678 57.4075 416.098 56.4415 416.098C54.6355 416.098 53.3335 414.922 53.3335 412.794V408.244H55.2935V412.514C55.2935 413.76 55.9795 414.432 57.0155 414.432C58.0795 414.432 58.7515 413.76 58.7515 412.514V408.244H60.7255ZM65.9953 416V405.64H67.9553V409.21C68.4593 408.552 69.3273 408.132 70.3633 408.132C72.1133 408.132 73.3873 409.308 73.3873 411.45V416H71.4273V411.716C71.4273 410.47 70.7413 409.798 69.7053 409.798C68.6413 409.798 67.9553 410.47 67.9553 411.716V416H65.9953ZM82.7412 412.122C82.7412 414.558 80.9492 416.126 78.6952 416.126C76.4552 416.126 74.7612 414.558 74.7612 412.122C74.7612 409.672 76.5112 408.118 78.7512 408.118C80.9912 408.118 82.7412 409.672 82.7412 412.122ZM76.7492 412.122C76.7492 413.662 77.6452 414.418 78.6952 414.418C79.7312 414.418 80.7252 413.662 80.7252 412.122C80.7252 410.568 79.7592 409.826 78.7232 409.826C77.6872 409.826 76.7492 410.568 76.7492 412.122ZM86.1389 412.136V416H84.1789V408.244H86.1389V409.448C86.6289 408.65 87.4409 408.132 88.5189 408.132V410.19H88.0009C86.8389 410.19 86.1389 410.638 86.1389 412.136ZM89.335 412.094C89.335 409.672 90.903 408.118 92.877 408.118C94.123 408.118 94.977 408.706 95.439 409.35V408.244H97.413V416H95.439V414.866C94.977 415.538 94.095 416.126 92.863 416.126C90.903 416.126 89.335 414.516 89.335 412.094ZM95.439 412.122C95.439 410.652 94.459 409.84 93.381 409.84C92.331 409.84 91.337 410.624 91.337 412.094C91.337 413.564 92.331 414.404 93.381 414.404C94.459 414.404 95.439 413.592 95.439 412.122ZM99.3273 416V408.244H101.287V416H99.3273ZM100.321 407.32C99.6213 407.32 99.1173 406.816 99.1173 406.172C99.1173 405.528 99.6213 405.024 100.321 405.024C101.007 405.024 101.525 405.528 101.525 406.172C101.525 406.816 101.007 407.32 100.321 407.32ZM105.184 412.136V416H103.224V408.244H105.184V409.448C105.674 408.65 106.486 408.132 107.564 408.132V410.19H107.046C105.884 410.19 105.184 410.638 105.184 412.136ZM112.216 409.728C111.278 409.728 110.536 410.33 110.382 411.394H114.064C114.036 410.372 113.224 409.728 112.216 409.728ZM115.898 413.564C115.478 414.992 114.19 416.126 112.272 416.126C110.018 416.126 108.38 414.558 108.38 412.122C108.38 409.672 109.976 408.118 112.272 408.118C114.512 408.118 116.094 409.644 116.094 411.954C116.094 412.206 116.08 412.458 116.038 412.71H110.368C110.466 413.858 111.25 414.502 112.23 414.502C113.07 414.502 113.532 414.082 113.784 413.564H115.898Z" fill="#383838"/>
<path d="M132.972 85L132.188 82.83H127.932L127.148 85H125.804L129.332 75.298H130.802L134.316 85H132.972ZM131.824 81.794L130.06 76.866L128.296 81.794H131.824ZM143.133 81.15C143.133 83.586 141.383 85.126 139.199 85.126C137.029 85.126 135.377 83.586 135.377 81.15C135.377 78.728 137.085 77.202 139.255 77.202C141.439 77.202 143.133 78.728 143.133 81.15ZM136.679 81.15C136.679 83.096 137.869 84.006 139.199 84.006C140.529 84.006 141.831 83.096 141.831 81.15C141.831 79.218 140.557 78.308 139.241 78.308C137.897 78.308 136.679 79.218 136.679 81.15ZM151.612 77.328V85H150.338V83.866C149.848 84.664 148.91 85.112 147.888 85.112C146.124 85.112 144.738 84.02 144.738 81.822V77.328H145.998V81.654C145.998 83.208 146.852 84.006 148.14 84.006C149.456 84.006 150.338 83.194 150.338 81.542V77.328H151.612ZM150.156 75.634V76.642L148.224 75.452L146.278 76.642V75.634L148.224 74.472L150.156 75.634ZM154.044 82.9V78.378H153.05V77.328H154.044V75.396H155.318V77.328H157.32V78.378H155.318V82.9C155.318 83.656 155.598 83.922 156.382 83.922H157.32V85H156.172C154.814 85 154.044 84.44 154.044 82.9ZM162.232 84.888V83.978C164.892 81.836 167.412 79.82 167.412 77.748C167.412 76.628 166.922 75.788 165.55 75.788C164.234 75.788 163.562 76.698 163.506 77.972H162.274C162.358 75.816 163.716 74.696 165.536 74.696C167.44 74.696 168.672 75.816 168.672 77.692C168.672 80.212 165.956 82.354 164.15 83.824H168.966V84.888H162.232ZM170.438 79.834C170.438 76.936 171.166 74.724 173.966 74.724C176.752 74.724 177.48 76.936 177.48 79.834C177.48 82.774 176.752 85 173.966 85C171.166 85 170.438 82.774 170.438 79.834ZM176.22 79.834C176.22 77.734 175.954 75.886 173.966 75.886C171.964 75.886 171.698 77.734 171.698 79.834C171.698 82.018 171.964 83.838 173.966 83.838C175.954 83.838 176.22 82.018 176.22 79.834ZM179.075 84.888V83.978C181.735 81.836 184.255 79.82 184.255 77.748C184.255 76.628 183.765 75.788 182.393 75.788C181.077 75.788 180.405 76.698 180.349 77.972H179.117C179.201 75.816 180.559 74.696 182.379 74.696C184.283 74.696 185.515 75.816 185.515 77.692C185.515 80.212 182.799 82.354 180.993 83.824H185.809V84.888H179.075ZM187.254 77.426C187.38 75.69 188.696 74.682 190.572 74.682C192.546 74.682 193.624 75.83 193.624 77.286C193.624 78.448 192.896 79.358 191.832 79.596V79.666C193.008 79.946 193.806 80.814 193.806 82.27C193.806 83.838 192.714 85.07 190.6 85.07C188.682 85.07 187.254 84.048 187.1 82.088H188.332C188.458 83.166 189.242 83.992 190.586 83.992C191.944 83.992 192.588 83.194 192.588 82.158C192.588 80.73 191.594 80.184 189.774 80.184H189.452V79.12H189.788C191.482 79.106 192.392 78.588 192.392 77.412C192.392 76.446 191.748 75.774 190.53 75.774C189.34 75.774 188.626 76.446 188.5 77.426H187.254Z" fill="#383838"/>
<path d="M12.078 125.242H13.352V133.964H16.768V135H12.078V125.242ZM18.093 131.402V125.242H19.367V131.416C19.367 133.208 20.333 133.978 21.775 133.978C23.217 133.978 24.169 133.208 24.169 131.416V125.242H25.443V131.402C25.443 133.936 23.777 135.098 21.761 135.098C19.745 135.098 18.093 133.936 18.093 131.402ZM33.9662 125.228H35.2402V135H33.9662L28.8422 127.23V135H27.5682V125.228H28.8422L33.9662 132.984V125.228Z" fill="#383838"/>
<path d="M55.078 135V125.312H56.45L60.034 133.32L63.618 125.312H64.976V135H63.702V127.776L60.482 135H59.586L56.352 127.762V135H55.078ZM73.6886 135L72.9046 132.83H68.6486L67.8646 135H66.5206L70.0486 125.298H71.5186L75.0326 135H73.6886ZM72.5406 131.794L70.7766 126.866L69.0126 131.794H72.5406ZM81.7922 128.112C81.7922 127.006 81.1762 126.292 79.7202 126.292H77.8442V129.988H79.7202C81.1622 129.988 81.7922 129.204 81.7922 128.112ZM76.5702 125.242H79.7202C82.0162 125.242 83.1082 126.516 83.1082 128.112C83.1082 129.358 82.4222 130.548 80.7842 130.912L83.2342 135H81.7082L79.3842 131.01H77.8442V135H76.5702V125.242Z" fill="#383838"/>
<path d="M69.1338 179V170.04H67.7898V168.878H70.4218V179H69.1338Z" fill="#A7A7A7"/>
<path d="M67.8 213.736C66.764 213.33 66.176 212.546 66.176 211.412C66.176 209.928 67.296 208.724 69.494 208.724C71.692 208.724 72.826 209.942 72.826 211.412C72.826 212.504 72.196 213.344 71.202 213.736C72.35 214.086 73.092 215.01 73.092 216.27C73.092 218.104 71.636 219.28 69.494 219.28C67.366 219.28 65.924 218.104 65.924 216.27C65.924 214.996 66.666 214.072 67.8 213.736ZM69.494 213.316C70.74 213.316 71.594 212.616 71.594 211.566C71.594 210.404 70.768 209.788 69.494 209.788C68.248 209.788 67.408 210.39 67.408 211.58C67.408 212.63 68.262 213.316 69.494 213.316ZM69.494 214.296C68.192 214.296 67.142 214.884 67.142 216.228C67.142 217.418 68.052 218.216 69.494 218.216C70.936 218.216 71.832 217.404 71.832 216.228C71.832 214.926 70.824 214.296 69.494 214.296Z" fill="#A7A7A7"/>
<path d="M64.2383 259V250.04H62.8943V248.878H65.5263V259H64.2383ZM68.0787 248.864H74.1687V249.984H69.2547V253.176C69.6747 252.602 70.5707 252.154 71.5647 252.154C74.0287 252.154 74.8127 253.932 74.8127 255.5C74.8127 257.46 73.7207 259.028 71.3547 259.028C69.3387 259.028 68.1207 257.894 67.8687 256.256H69.1147C69.3527 257.32 70.1787 257.95 71.3687 257.95C72.9087 257.95 73.5947 256.914 73.5947 255.528C73.5947 254.086 72.8527 253.246 71.3827 253.246C70.3607 253.246 69.6187 253.778 69.2827 254.576H68.0787V248.864Z" fill="#A7A7A7"/>
<path d="M62.1613 298.888V297.978C64.8213 295.836 67.3413 293.82 67.3413 291.748C67.3413 290.628 66.8513 289.788 65.4793 289.788C64.1633 289.788 63.4913 290.698 63.4353 291.972H62.2033C62.2873 289.816 63.6453 288.696 65.4653 288.696C67.3693 288.696 68.6013 289.816 68.6013 291.692C68.6013 294.212 65.8853 296.354 64.0793 297.824H68.8953V298.888H62.1613ZM70.214 298.888V297.978C72.874 295.836 75.394 293.82 75.394 291.748C75.394 290.628 74.904 289.788 73.532 289.788C72.216 289.788 71.544 290.698 71.488 291.972H70.256C70.34 289.816 71.698 288.696 73.518 288.696C75.422 288.696 76.654 289.816 76.654 291.692C76.654 294.212 73.938 296.354 72.132 297.824H76.948V298.888H70.214Z" fill="#A7A7A7"/>
<path d="M61.7286 338.86V337.404C64.0386 335.444 66.4606 333.638 66.4606 331.762C66.4606 330.852 66.0546 330.236 65.0886 330.236C64.1506 330.236 63.6326 330.908 63.6186 331.986H61.7146C61.7846 329.648 63.2826 328.57 65.1166 328.57C67.3146 328.57 68.4206 329.872 68.4206 331.65C68.4206 334.016 66.1386 335.864 64.5146 337.236H68.6446V338.86H61.7286ZM70.3277 336.13H72.1477C72.3017 336.942 72.8197 337.404 73.7297 337.404C74.8777 337.404 75.3817 336.55 75.3817 334.254C74.9477 334.856 74.1217 335.206 73.2257 335.206C71.4617 335.206 70.0477 334.1 70.0477 331.944C70.0477 329.9 71.3357 328.556 73.4917 328.556C76.2637 328.556 77.1177 330.432 77.1177 333.666C77.1177 337.138 76.3477 339.014 73.6457 339.014C71.4757 339.014 70.4397 337.628 70.3277 336.13ZM73.6317 333.61C74.6117 333.61 75.1997 332.952 75.1997 331.958C75.1997 330.838 74.5557 330.222 73.5617 330.222C72.5397 330.222 71.9237 330.908 71.9237 331.93C71.9237 332.854 72.4417 333.61 73.6317 333.61Z" fill="#CA8702"/>
<path d="M22.6407 208.906H29.2767V209.872L25.3847 219H24.0967L28.0447 209.998H22.6407V208.906Z" fill="#A7A7A7"/>
<path d="M21.2315 259V250.04H19.8875V248.878H22.5195V259H21.2315ZM29.5798 259V256.746H24.3998V255.78L29.3138 248.976H30.8398V255.64H32.2398V256.746H30.8398V259H29.5798ZM25.8698 255.64H29.6358V250.306L25.8698 255.64Z" fill="#A7A7A7"/>
<path d="M20.9454 298.888V297.978C23.6054 295.836 26.1254 293.82 26.1254 291.748C26.1254 290.628 25.6354 289.788 24.2634 289.788C22.9474 289.788 22.2754 290.698 22.2194 291.972H20.9874C21.0714 289.816 22.4294 288.696 24.2494 288.696C26.1534 288.696 27.3854 289.816 27.3854 291.692C27.3854 294.212 24.6694 296.354 22.8634 297.824H27.6794V298.888H20.9454ZM30.1602 299V290.04H28.8162V288.878H31.4482V299H30.1602Z" fill="#A7A7A7"/>
<path d="M18.1124 338.86V337.404C20.4224 335.444 22.8444 333.638 22.8444 331.762C22.8444 330.852 22.4384 330.236 21.4724 330.236C20.5344 330.236 20.0164 330.908 20.0024 331.986H18.0984C18.1684 329.648 19.6664 328.57 21.5004 328.57C23.6984 328.57 24.8044 329.872 24.8044 331.65C24.8044 334.016 22.5224 335.864 20.8984 337.236H25.0284V338.86H18.1124ZM27.9715 333.596C27.1315 333.162 26.5715 332.448 26.5715 331.342C26.5715 329.872 27.6915 328.598 30.0155 328.598C32.3395 328.598 33.4595 329.886 33.4595 331.342C33.4595 332.42 32.8715 333.19 32.0735 333.596C33.0815 334.03 33.7115 334.912 33.7115 336.102C33.7115 338.048 32.1155 339.224 30.0155 339.224C27.9295 339.224 26.3335 338.048 26.3335 336.102C26.3335 334.898 26.9635 334.016 27.9715 333.596ZM30.0155 333.022C30.9115 333.022 31.5555 332.462 31.5555 331.622C31.5555 330.698 30.9535 330.18 30.0155 330.18C29.1055 330.18 28.4895 330.684 28.4895 331.636C28.4895 332.476 29.1335 333.022 30.0155 333.022ZM30.0155 334.45C28.9935 334.45 28.2235 334.982 28.2235 336.018C28.2235 336.928 28.8955 337.6 30.0155 337.6C31.1355 337.6 31.7935 336.914 31.7935 336.018C31.7935 335.01 31.0655 334.45 30.0155 334.45Z" fill="#CA8702"/>
<path d="M113.188 178.888V177.978C115.848 175.836 118.368 173.82 118.368 171.748C118.368 170.628 117.878 169.788 116.506 169.788C115.19 169.788 114.518 170.698 114.462 171.972H113.23C113.314 169.816 114.672 168.696 116.492 168.696C118.396 168.696 119.628 169.816 119.628 171.692C119.628 174.212 116.912 176.354 115.106 177.824H119.922V178.888H113.188Z" fill="#A7A7A7"/>
<path d="M113.421 216.284H114.597C114.779 217.334 115.451 217.95 116.627 217.95C118.111 217.95 118.909 216.942 118.867 213.974C118.461 214.828 117.453 215.318 116.361 215.318C114.499 215.318 113.113 214.156 113.113 212.014C113.113 210.082 114.261 208.682 116.445 208.682C119.189 208.682 119.987 210.614 119.987 213.75C119.987 217.124 119.217 219.014 116.557 219.014C114.541 219.014 113.561 217.768 113.421 216.284ZM116.571 214.24C117.789 214.24 118.713 213.442 118.713 212.084C118.713 210.712 117.929 209.746 116.473 209.746C115.157 209.746 114.331 210.642 114.331 211.986C114.331 213.288 115.059 214.24 116.571 214.24Z" fill="#A7A7A7"/>
<path d="M111.19 259V250.04H109.846V248.878H112.478V259H111.19ZM121.485 251.286H120.309C120.113 250.306 119.539 249.732 118.391 249.732C116.781 249.732 115.913 250.838 115.927 253.848C116.361 252.854 117.467 252.294 118.671 252.294C120.561 252.294 121.835 253.54 121.835 255.668C121.835 257.516 120.743 259.028 118.531 259.028C115.535 259.028 114.821 256.872 114.821 253.806C114.821 250.628 115.843 248.668 118.405 248.668C120.337 248.668 121.317 249.872 121.485 251.286ZM118.405 253.372C117.243 253.372 116.081 254.058 116.081 255.57C116.081 256.914 116.865 257.964 118.461 257.964C119.777 257.964 120.603 257.082 120.603 255.71C120.603 254.282 119.861 253.372 118.405 253.372Z" fill="#A7A7A7"/>
<path d="M109.066 298.888V297.978C111.726 295.836 114.246 293.82 114.246 291.748C114.246 290.628 113.756 289.788 112.384 289.788C111.068 289.788 110.396 290.698 110.34 291.972H109.108C109.192 289.816 110.55 288.696 112.37 288.696C114.274 288.696 115.506 289.816 115.506 291.692C115.506 294.212 112.79 296.354 110.984 297.824H115.8V298.888H109.066ZM117.244 291.426C117.37 289.69 118.686 288.682 120.562 288.682C122.536 288.682 123.614 289.83 123.614 291.286C123.614 292.448 122.886 293.358 121.822 293.596V293.666C122.998 293.946 123.796 294.814 123.796 296.27C123.796 297.838 122.704 299.07 120.59 299.07C118.672 299.07 117.244 298.048 117.09 296.088H118.322C118.448 297.166 119.232 297.992 120.576 297.992C121.934 297.992 122.578 297.194 122.578 296.158C122.578 294.73 121.584 294.184 119.764 294.184H119.442V293.12H119.778C121.472 293.106 122.382 292.588 122.382 291.412C122.382 290.446 121.738 289.774 120.52 289.774C119.33 289.774 118.616 290.446 118.49 291.426H117.244Z" fill="#A7A7A7"/>
<path d="M108.054 331.482C108.152 329.592 109.496 328.556 111.456 328.556C113.556 328.556 114.676 329.746 114.676 331.258C114.676 332.532 113.878 333.316 113.136 333.568V333.624C114.172 333.946 114.858 334.786 114.858 336.172C114.858 337.838 113.682 339.07 111.54 339.07C109.524 339.07 107.998 338.062 107.914 335.92H109.818C109.86 336.802 110.448 337.432 111.498 337.432C112.478 337.432 112.982 336.816 112.982 336.004C112.982 334.856 112.254 334.436 110.798 334.436H110.392V332.826H110.798C111.946 332.826 112.786 332.504 112.786 331.496C112.786 330.698 112.296 330.222 111.4 330.222C110.448 330.222 110.042 330.838 109.972 331.482H108.054ZM116.407 333.764C116.407 330.81 117.303 328.598 120.187 328.598C123.071 328.598 123.967 330.81 123.967 333.764C123.967 336.746 123.071 338.972 120.187 338.972C117.303 338.972 116.407 336.746 116.407 333.764ZM122.035 333.764C122.035 332.014 121.839 330.418 120.187 330.418C118.535 330.418 118.339 332.014 118.339 333.764C118.339 335.584 118.535 337.152 120.187 337.152C121.839 337.152 122.035 335.584 122.035 333.764Z" fill="#CA8702"/>
<path d="M156.218 171.426C156.344 169.69 157.66 168.682 159.536 168.682C161.51 168.682 162.588 169.83 162.588 171.286C162.588 172.448 161.86 173.358 160.796 173.596V173.666C161.972 173.946 162.77 174.814 162.77 176.27C162.77 177.838 161.678 179.07 159.564 179.07C157.646 179.07 156.218 178.048 156.064 176.088H157.296C157.422 177.166 158.206 177.992 159.55 177.992C160.908 177.992 161.552 177.194 161.552 176.158C161.552 174.73 160.558 174.184 158.738 174.184H158.416V173.12H158.752C160.446 173.106 161.356 172.588 161.356 171.412C161.356 170.446 160.712 169.774 159.494 169.774C158.304 169.774 157.59 170.446 157.464 171.426H156.218Z" fill="#A7A7A7"/>
<path d="M154.238 219V210.04H152.894V208.878H155.526V219H154.238ZM157.715 213.834C157.715 210.936 158.443 208.724 161.243 208.724C164.029 208.724 164.757 210.936 164.757 213.834C164.757 216.774 164.029 219 161.243 219C158.443 219 157.715 216.774 157.715 213.834ZM163.497 213.834C163.497 211.734 163.231 209.886 161.243 209.886C159.241 209.886 158.975 211.734 158.975 213.834C158.975 216.018 159.241 217.838 161.243 217.838C163.231 217.838 163.497 216.018 163.497 213.834Z" fill="#A7A7A7"/>
<path d="M155.313 259V250.04H153.969V248.878H156.601V259H155.313ZM158.383 248.906H165.019V249.872L161.127 259H159.839L163.787 249.998H158.383V248.906Z" fill="#A7A7A7"/>
<path d="M151.785 298.888V297.978C154.445 295.836 156.965 293.82 156.965 291.748C156.965 290.628 156.475 289.788 155.103 289.788C153.787 289.788 153.115 290.698 153.059 291.972H151.827C151.911 289.816 153.269 288.696 155.089 288.696C156.993 288.696 158.225 289.816 158.225 291.692C158.225 294.212 155.509 296.354 153.703 297.824H158.519V298.888H151.785ZM164.864 299V296.746H159.684V295.78L164.598 288.976H166.124V295.64H167.524V296.746H166.124V299H164.864ZM161.154 295.64H164.92V290.306L161.154 295.64Z" fill="#A7A7A7"/>
<path d="M153.043 331.482C153.141 329.592 154.485 328.556 156.445 328.556C158.545 328.556 159.665 329.746 159.665 331.258C159.665 332.532 158.867 333.316 158.125 333.568V333.624C159.161 333.946 159.847 334.786 159.847 336.172C159.847 337.838 158.671 339.07 156.529 339.07C154.513 339.07 152.987 338.062 152.903 335.92H154.807C154.849 336.802 155.437 337.432 156.487 337.432C157.467 337.432 157.971 336.816 157.971 336.004C157.971 334.856 157.243 334.436 155.787 334.436H155.381V332.826H155.787C156.935 332.826 157.775 332.504 157.775 331.496C157.775 330.698 157.285 330.222 156.389 330.222C155.437 330.222 155.031 330.838 154.961 331.482H153.043ZM162.516 339V330.6H161.158V328.794H164.532V339H162.516Z" fill="#CA8702"/>
<path d="M203.838 179V176.746H198.658V175.78L203.572 168.976H205.098V175.64H206.498V176.746H205.098V179H203.838ZM200.128 175.64H203.894V170.306L200.128 175.64Z" fill="#A7A7A7"/>
<path d="M199.892 219V210.04H198.548V208.878H201.18V219H199.892ZM204.376 219V210.04H203.032V208.878H205.664V219H204.376Z" fill="#A7A7A7"/>
<path d="M197.218 259V250.04H195.874V248.878H198.506V259H197.218ZM202.542 253.736C201.506 253.33 200.918 252.546 200.918 251.412C200.918 249.928 202.038 248.724 204.236 248.724C206.434 248.724 207.568 249.942 207.568 251.412C207.568 252.504 206.938 253.344 205.944 253.736C207.092 254.086 207.834 255.01 207.834 256.27C207.834 258.104 206.378 259.28 204.236 259.28C202.108 259.28 200.666 258.104 200.666 256.27C200.666 254.996 201.408 254.072 202.542 253.736ZM204.236 253.316C205.482 253.316 206.336 252.616 206.336 251.566C206.336 250.404 205.51 249.788 204.236 249.788C202.99 249.788 202.15 250.39 202.15 251.58C202.15 252.63 203.004 253.316 204.236 253.316ZM204.236 254.296C202.934 254.296 201.884 254.884 201.884 256.228C201.884 257.418 202.794 258.216 204.236 258.216C205.678 258.216 206.574 257.404 206.574 256.228C206.574 254.926 205.566 254.296 204.236 254.296Z" fill="#A7A7A7"/>
<path d="M194.106 298.86V297.404C196.416 295.444 198.838 293.638 198.838 291.762C198.838 290.852 198.432 290.236 197.466 290.236C196.528 290.236 196.01 290.908 195.996 291.986H194.092C194.162 289.648 195.66 288.57 197.494 288.57C199.692 288.57 200.798 289.872 200.798 291.65C200.798 294.016 198.516 295.864 196.892 297.236H201.022V298.86H194.106ZM202.789 288.766H209.117V290.488H204.581V292.882C204.959 292.42 205.729 292.056 206.583 292.056C208.963 292.056 209.775 293.848 209.775 295.43C209.775 297.516 208.571 299 206.247 299C204.049 299 202.789 297.782 202.621 296.116H204.525C204.693 296.83 205.267 297.348 206.219 297.348C207.367 297.348 207.885 296.536 207.885 295.458C207.885 294.31 207.311 293.68 206.205 293.68C205.393 293.68 204.875 294.128 204.665 294.758H202.789V288.766Z" fill="white"/>
<path d="M244.336 168.864H250.426V169.984H245.512V173.176C245.932 172.602 246.828 172.154 247.822 172.154C250.286 172.154 251.07 173.932 251.07 175.5C251.07 177.46 249.978 179.028 247.612 179.028C245.596 179.028 244.378 177.894 244.126 176.256H245.372C245.61 177.32 246.436 177.95 247.626 177.95C249.166 177.95 249.852 176.914 249.852 175.528C249.852 174.086 249.11 173.246 247.64 173.246C246.618 173.246 245.876 173.778 245.54 174.576H244.336V168.864Z" fill="#A7A7A7"/>
<path d="M243.107 219V210.04H241.763V208.878H244.395V219H243.107ZM246.43 218.888V217.978C249.09 215.836 251.61 213.82 251.61 211.748C251.61 210.628 251.12 209.788 249.748 209.788C248.432 209.788 247.76 210.698 247.704 211.972H246.472C246.556 209.816 247.914 208.696 249.734 208.696C251.638 208.696 252.87 209.816 252.87 211.692C252.87 214.212 250.154 216.354 248.348 217.824H253.164V218.888H246.43Z" fill="#A7A7A7"/>
<path d="M242.225 259V250.04H240.881V248.878H243.513V259H242.225ZM246.163 256.284H247.339C247.521 257.334 248.193 257.95 249.369 257.95C250.853 257.95 251.651 256.942 251.609 253.974C251.203 254.828 250.195 255.318 249.103 255.318C247.241 255.318 245.855 254.156 245.855 252.014C245.855 250.082 247.003 248.682 249.187 248.682C251.931 248.682 252.729 250.614 252.729 253.75C252.729 257.124 251.959 259.014 249.299 259.014C247.283 259.014 246.303 257.768 246.163 256.284ZM249.313 254.24C250.531 254.24 251.455 253.442 251.455 252.084C251.455 250.712 250.671 249.746 249.215 249.746C247.899 249.746 247.073 250.642 247.073 251.986C247.073 253.288 247.801 254.24 249.313 254.24Z" fill="#A7A7A7"/>
<path d="M239.744 298.888V297.978C242.404 295.836 244.924 293.82 244.924 291.748C244.924 290.628 244.434 289.788 243.062 289.788C241.746 289.788 241.074 290.698 241.018 291.972H239.786C239.87 289.816 241.228 288.696 243.048 288.696C244.952 288.696 246.184 289.816 246.184 291.692C246.184 294.212 243.468 296.354 241.662 297.824H246.478V298.888H239.744ZM254.769 291.286H253.593C253.397 290.306 252.823 289.732 251.675 289.732C250.065 289.732 249.197 290.838 249.211 293.848C249.645 292.854 250.751 292.294 251.955 292.294C253.845 292.294 255.119 293.54 255.119 295.668C255.119 297.516 254.027 299.028 251.815 299.028C248.819 299.028 248.105 296.872 248.105 293.806C248.105 290.628 249.127 288.668 251.689 288.668C253.621 288.668 254.601 289.872 254.769 291.286ZM251.689 293.372C250.527 293.372 249.365 294.058 249.365 295.57C249.365 296.914 250.149 297.964 251.745 297.964C253.061 297.964 253.887 297.082 253.887 295.71C253.887 294.282 253.145 293.372 251.689 293.372Z" fill="#A7A7A7"/>
<path d="M295.743 171.286H294.567C294.371 170.306 293.797 169.732 292.649 169.732C291.039 169.732 290.171 170.838 290.185 173.848C290.619 172.854 291.725 172.294 292.929 172.294C294.819 172.294 296.093 173.54 296.093 175.668C296.093 177.516 295.001 179.028 292.789 179.028C289.793 179.028 289.079 176.872 289.079 173.806C289.079 170.628 290.101 168.668 292.663 168.668C294.595 168.668 295.575 169.872 295.743 171.286ZM292.663 173.372C291.501 173.372 290.339 174.058 290.339 175.57C290.339 176.914 291.123 177.964 292.719 177.964C294.035 177.964 294.861 177.082 294.861 175.71C294.861 174.282 294.119 173.372 292.663 173.372Z" fill="#A7A7A7"/>
<path d="M288.012 219V210.04H286.668V208.878H289.3V219H288.012ZM291.46 211.426C291.586 209.69 292.902 208.682 294.778 208.682C296.752 208.682 297.83 209.83 297.83 211.286C297.83 212.448 297.102 213.358 296.038 213.596V213.666C297.214 213.946 298.012 214.814 298.012 216.27C298.012 217.838 296.92 219.07 294.806 219.07C292.888 219.07 291.46 218.048 291.306 216.088H292.538C292.664 217.166 293.448 217.992 294.792 217.992C296.15 217.992 296.794 217.194 296.794 216.158C296.794 214.73 295.8 214.184 293.98 214.184H293.658V213.12H293.994C295.688 213.106 296.598 212.588 296.598 211.412C296.598 210.446 295.954 209.774 294.736 209.774C293.546 209.774 292.832 210.446 292.706 211.426H291.46Z" fill="#A7A7A7"/>
<path d="M284.792 258.888V257.978C287.452 255.836 289.972 253.82 289.972 251.748C289.972 250.628 289.482 249.788 288.11 249.788C286.794 249.788 286.122 250.698 286.066 251.972H284.834C284.918 249.816 286.276 248.696 288.096 248.696C290 248.696 291.232 249.816 291.232 251.692C291.232 254.212 288.516 256.354 286.71 257.824H291.526V258.888H284.792ZM292.999 253.834C292.999 250.936 293.727 248.724 296.527 248.724C299.313 248.724 300.041 250.936 300.041 253.834C300.041 256.774 299.313 259 296.527 259C293.727 259 292.999 256.774 292.999 253.834ZM298.781 253.834C298.781 251.734 298.515 249.886 296.527 249.886C294.525 249.886 294.259 251.734 294.259 253.834C294.259 256.018 294.525 257.838 296.527 257.838C298.515 257.838 298.781 256.018 298.781 253.834Z" fill="#A7A7A7"/>
<path d="M284.866 298.888V297.978C287.526 295.836 290.046 293.82 290.046 291.748C290.046 290.628 289.556 289.788 288.184 289.788C286.868 289.788 286.196 290.698 286.14 291.972H284.908C284.992 289.816 286.35 288.696 288.17 288.696C290.074 288.696 291.306 289.816 291.306 291.692C291.306 294.212 288.59 296.354 286.784 297.824H291.6V298.888H284.866ZM292.667 288.906H299.303V289.872L295.411 299H294.123L298.071 289.998H292.667V288.906Z" fill="#A7A7A7"/>
<path d="M103.078 135V125.312H104.45L108.034 133.32L111.618 125.312H112.976V135H111.702V127.776L108.482 135H107.586L104.352 127.762V135H103.078ZM120.387 125.228V126.278H116.411V129.54H119.967V130.59H116.411V133.95H120.387V135H115.137V125.228H120.387ZM127.536 128.112C127.536 127.006 126.92 126.292 125.464 126.292H123.588V129.988H125.464C126.906 129.988 127.536 129.204 127.536 128.112ZM122.314 125.242H125.464C127.76 125.242 128.852 126.516 128.852 128.112C128.852 129.358 128.166 130.548 126.528 130.912L128.978 135H127.452L125.128 131.01H123.588V135H122.314V125.242Z" fill="#383838"/>
<path d="M151.704 132.452V125.242H152.992V132.452C152.992 134.076 151.9 135.098 150.29 135.098C148.666 135.098 147.574 134.062 147.574 132.354H148.848C148.862 133.25 149.282 133.964 150.29 133.964C151.298 133.964 151.704 133.264 151.704 132.452ZM160.752 125.228V126.278H156.776V129.54H160.332V130.59H156.776V133.95H160.752V135H155.502V125.228H160.752ZM162.652 131.402V125.242H163.926V131.416C163.926 133.208 164.892 133.978 166.334 133.978C167.776 133.978 168.728 133.208 168.728 131.416V125.242H170.002V131.402C170.002 133.936 168.336 135.098 166.32 135.098C164.304 135.098 162.652 133.936 162.652 131.402Z" fill="#383838"/>
<path d="M193.732 133.656L196.798 125.242H198.142L194.46 135H192.99L189.308 125.242H190.666L193.732 133.656ZM204.789 125.228V126.278H200.813V129.54H204.369V130.59H200.813V133.95H204.789V135H199.539V125.228H204.789ZM213.115 125.228H214.389V135H213.115L207.991 127.23V135H206.717V125.228H207.991L213.115 132.984V125.228Z" fill="#383838"/>
<path d="M240.42 132.34C240.42 133.726 239.286 135.098 237.172 135.098C235.212 135.098 233.826 134.006 233.798 132.396H235.156C235.24 133.208 235.814 134.02 237.172 134.02C238.404 134.02 239.132 133.32 239.132 132.396C239.132 129.764 233.854 131.444 233.854 127.818C233.854 126.208 235.156 125.116 237.088 125.116C238.95 125.116 240.168 126.138 240.322 127.622H238.922C238.838 126.964 238.222 126.222 237.032 126.208C235.982 126.18 235.156 126.726 235.156 127.776C235.156 130.296 240.42 128.728 240.42 132.34ZM248.847 135L248.063 132.83H243.807L243.023 135H241.679L245.207 125.298H246.677L250.191 135H248.847ZM247.699 131.794L245.935 126.866L244.171 131.794H247.699ZM251.728 135V125.312H253.1L256.684 133.32L260.268 125.312H261.626V135H260.352V127.776L257.132 135H256.236L253.002 127.762V135H251.728Z" fill="#383838"/>
<path d="M284.116 125.242C287.322 125.242 289.296 127.118 289.296 130.142C289.296 133.166 287.322 135 284.116 135H281.078V125.242H284.116ZM282.352 133.95H284.116C286.664 133.95 287.994 132.522 287.994 130.142C287.994 127.762 286.664 126.278 284.116 126.278H282.352V133.95ZM290.976 135V125.242H292.25V135H290.976ZM294.422 135V125.312H295.794L299.378 133.32L302.962 125.312H304.32V135H303.046V127.776L299.826 135H298.93L295.696 127.762V135H294.422Z" fill="#383838"/>
<path d="M219 85L224 79.5L219 74" stroke="#CA8702" stroke-width="2"/>
<path d="M101 73L96 78.5L101 84" stroke="#CA8702" stroke-width="2"/>
<circle cx="202.5" cy="305.5" r="2.5" fill="white"/>
<path d="M111.5 452L107.603 445.25L115.397 445.25L111.5 452Z" fill="#383838"/>
</svg>
