<svg width="34" height="34" viewBox="0 0 34 34" fill="none" xmlns="http://www.w3.org/2000/svg">
    <circle cx="17" cy="17" r="17" fill="white"/>
    <path d="M14.8 22.1666C14.8 22.0163 14.8597 21.8722 14.9659 21.7659C15.0722 21.6596 15.2163 21.5999 15.3666 21.5999H18.7666C18.9169 21.5999 19.061 21.6596 19.1673 21.7659C19.2736 21.8722 19.3333 22.0163 19.3333 22.1666C19.3333 22.3169 19.2736 22.461 19.1673 22.5673C19.061 22.6735 18.9169 22.7332 18.7666 22.7332H15.3666C15.2163 22.7332 15.0722 22.6735 14.9659 22.5673C14.8597 22.461 14.8 22.3169 14.8 22.1666ZM11.4 17.1369C11.4 15.6613 12.7996 14.5336 14.2673 14.6707C16.1295 14.8445 18.0038 14.8445 19.8659 14.6707C21.3336 14.5336 22.7333 15.6613 22.7333 17.1369V18.4481C22.7379 18.6989 22.6533 18.9431 22.4944 19.1372C22.3356 19.3313 22.113 19.4627 21.8663 19.5078C20.9086 19.6744 19.2143 19.8999 17.0666 19.8999C14.919 19.8999 13.2246 19.6733 12.267 19.5078C12.0203 19.4627 11.7976 19.3313 11.6388 19.1372C11.48 18.9431 11.3953 18.6989 11.4 18.4481V17.1369ZM16.5476 16.1996C16.5034 16.1921 16.4581 16.1951 16.4153 16.2085C16.3726 16.2219 16.3336 16.2453 16.3016 16.2767L15.259 17.2967C14.5498 17.2544 13.8424 17.1852 13.1385 17.0893C13.0655 17.082 12.9926 17.1033 12.9351 17.1487C12.8775 17.1941 12.8398 17.26 12.8298 17.3326C12.8198 17.4053 12.8384 17.4789 12.8816 17.5382C12.9248 17.5974 12.9892 17.6376 13.0614 17.6503C13.6848 17.7364 14.4577 17.8191 15.3508 17.869C15.3901 17.8712 15.4295 17.8652 15.4663 17.8513C15.5032 17.8375 15.5368 17.8161 15.565 17.7885L16.4195 16.9544L17.3794 18.8924C17.3996 18.933 17.4293 18.9682 17.466 18.995C17.5027 19.0218 17.5452 19.0394 17.5901 19.0463C17.635 19.0532 17.6809 19.0492 17.7239 19.0346C17.7669 19.0201 17.8058 18.9954 17.8373 18.9627L18.8935 17.8633C19.6221 17.8201 20.3487 17.749 21.0718 17.6503C21.144 17.6376 21.2085 17.5974 21.2517 17.5382C21.2949 17.4789 21.3134 17.4053 21.3035 17.3326C21.2935 17.26 21.2557 17.1941 21.1982 17.1487C21.1406 17.1033 21.0677 17.082 20.9947 17.0893C20.385 17.1731 19.6268 17.2536 18.7507 17.3035C18.6794 17.3074 18.6122 17.3382 18.5626 17.3896L17.7081 18.2793L16.7538 16.3526C16.7339 16.3126 16.7049 16.278 16.669 16.2514C16.6332 16.2248 16.5916 16.207 16.5476 16.1996Z" fill="#CA8702"/>
    <path d="M17.6333 10.1148C17.8494 9.99008 18.0182 9.79753 18.1137 9.56704C18.2092 9.33654 18.2259 9.08099 18.1614 8.84C18.0968 8.59902 17.9545 8.38608 17.7566 8.2342C17.5586 8.08232 17.3161 8 17.0667 8C16.8172 8 16.5747 8.08232 16.3767 8.2342C16.1788 8.38608 16.0365 8.59902 15.9719 8.84C15.9074 9.08099 15.9241 9.33654 16.0196 9.56704C16.1151 9.79753 16.2839 9.99008 16.5 10.1148V11.4H14.2333C12.8807 11.4 11.5835 11.9373 10.6271 12.8938C9.67065 13.8502 9.13333 15.1474 9.13333 16.5V17.0667C8.83275 17.0667 8.54449 17.1861 8.33195 17.3986C8.1194 17.6112 8 17.8994 8 18.2V20.4667C8 20.7673 8.1194 21.0555 8.33195 21.2681C8.54449 21.4806 8.83275 21.6 9.13333 21.6V22.7333C9.13333 23.3345 9.37214 23.911 9.79722 24.3361C10.2223 24.7612 10.7988 25 11.4 25H22.7333C23.3345 25 23.911 24.7612 24.3361 24.3361C24.7612 23.911 25 23.3345 25 22.7333V21.6C25.3005 21.6 25.5888 21.4806 25.8014 21.2681C26.0139 21.0555 26.1333 20.7673 26.1333 20.4667V18.2C26.1333 17.8994 26.0139 17.6112 25.8014 17.3986C25.5888 17.1861 25.3005 17.0667 25 17.0667V16.5C25 15.1474 24.4627 13.8502 23.5062 12.8938C22.5498 11.9373 21.2526 11.4 19.9 11.4H17.6333V10.1148ZM23.8666 16.5V22.7333C23.8666 23.0339 23.7472 23.3222 23.5347 23.5347C23.3222 23.7473 23.0339 23.8667 22.7333 23.8667H11.4C11.0994 23.8667 10.8111 23.7473 10.5986 23.5347C10.3861 23.3222 10.2667 23.0339 10.2667 22.7333V16.5C10.2667 15.448 10.6846 14.4391 11.4285 13.6952C12.1724 12.9513 13.1813 12.5334 14.2333 12.5334H19.9C20.952 12.5334 21.9609 12.9513 22.7048 13.6952C23.4487 14.4391 23.8666 15.448 23.8666 16.5Z" fill="#CA8702"/>
    <circle cx="27.5" cy="30.5" r="3" fill="#52EC39" stroke="#CA8702"/>
</svg>