<svg width="24" height="14" viewBox="0 0 24 14" fill="none" xmlns="http://www.w3.org/2000/svg">
<g id="Group 1">
<path id="Vector" d="M5.92163 3.4375C5.92163 3.25516 5.99962 3.0803 6.13843 2.95136C6.27725 2.82243 6.46552 2.75 6.66183 2.75H17.0246C17.2209 2.75 17.4092 2.82243 17.548 2.95136C17.6869 3.0803 17.7648 3.25516 17.7648 3.4375C17.7648 3.61984 17.6869 3.7947 17.548 3.92364C17.4092 4.05257 17.2209 4.125 17.0246 4.125H6.66183C6.46552 4.125 6.27725 4.05257 6.13843 3.92364C5.99962 3.7947 5.92163 3.61984 5.92163 3.4375ZM5.92163 10.3125C5.92163 10.1302 5.99962 9.95529 6.13843 9.82636C6.27725 9.69743 6.46552 9.625 6.66183 9.625H17.0246C17.2209 9.625 17.4092 9.69743 17.548 9.82636C17.6869 9.95529 17.7648 10.1302 17.7648 10.3125C17.7648 10.4948 17.6869 10.6697 17.548 10.7986C17.4092 10.9276 17.2209 11 17.0246 11H6.66183C6.46552 11 6.27725 10.9276 6.13843 10.7986C5.99962 10.6697 5.92163 10.4948 5.92163 10.3125ZM7.40203 5.5C7.0094 5.5 6.63286 5.64487 6.35523 5.90273C6.0776 6.16059 5.92163 6.51033 5.92163 6.875C5.92163 7.23967 6.0776 7.58941 6.35523 7.84727C6.63286 8.10513 7.0094 8.25 7.40203 8.25H16.2844C16.6771 8.25 17.0536 8.10513 17.3312 7.84727C17.6089 7.58941 17.7648 7.23967 17.7648 6.875C17.7648 6.51033 17.6089 6.16059 17.3312 5.90273C17.0536 5.64487 16.6771 5.5 16.2844 5.5H7.40203Z" fill="#1234AD"/>
<path id="Vector_2" d="M0 2.0625C0 1.51549 0.233955 0.990886 0.650399 0.604092C1.06684 0.217299 1.63166 0 2.2206 0H21.4658C22.0548 0 22.6196 0.217299 23.036 0.604092C23.4525 0.990886 23.6864 1.51549 23.6864 2.0625V4.125C23.6864 4.30734 23.6084 4.4822 23.4696 4.61114C23.3308 4.74007 23.1425 4.8125 22.9462 4.8125C22.3573 4.8125 21.7925 5.0298 21.376 5.41659C20.9596 5.80339 20.7256 6.32799 20.7256 6.875C20.7256 7.42201 20.9596 7.94661 21.376 8.33341C21.7925 8.7202 22.3573 8.9375 22.9462 8.9375C23.1425 8.9375 23.3308 9.00993 23.4696 9.13886C23.6084 9.26779 23.6864 9.44266 23.6864 9.625V11.6875C23.6864 12.2345 23.4525 12.7591 23.036 13.1459C22.6196 13.5327 22.0548 13.75 21.4658 13.75H2.2206C1.63166 13.75 1.06684 13.5327 0.650399 13.1459C0.233955 12.7591 0 12.2345 0 11.6875L0 9.625C0 9.44266 0.0779852 9.26779 0.2168 9.13886C0.355614 9.00993 0.543887 8.9375 0.7402 8.9375C1.32914 8.9375 1.89396 8.7202 2.3104 8.33341C2.72685 7.94661 2.9608 7.42201 2.9608 6.875C2.9608 6.32799 2.72685 5.80339 2.3104 5.41659C1.89396 5.0298 1.32914 4.8125 0.7402 4.8125C0.543887 4.8125 0.355614 4.74007 0.2168 4.61114C0.0779852 4.4822 0 4.30734 0 4.125V2.0625ZM2.2206 1.375C2.02429 1.375 1.83601 1.44743 1.6972 1.57636C1.55839 1.7053 1.4804 1.88016 1.4804 2.0625V3.50625C2.31704 3.66404 3.06922 4.08563 3.6095 4.69957C4.14977 5.31352 4.44491 6.08207 4.44491 6.875C4.44491 7.66793 4.14977 8.43648 3.6095 9.05043C3.06922 9.66437 2.31704 10.086 1.4804 10.2437V11.6875C1.4804 11.8698 1.55839 12.0447 1.6972 12.1736C1.83601 12.3026 2.02429 12.375 2.2206 12.375H21.4658C21.6621 12.375 21.8504 12.3026 21.9892 12.1736C22.128 12.0447 22.206 11.8698 22.206 11.6875V10.2437C21.3694 10.086 20.6172 9.66437 20.0769 9.05043C19.5366 8.43648 19.2415 7.66793 19.2415 6.875C19.2415 6.08207 19.5366 5.31352 20.0769 4.69957C20.6172 4.08563 21.3694 3.66404 22.206 3.50625V2.0625C22.206 1.88016 22.128 1.7053 21.9892 1.57636C21.8504 1.44743 21.6621 1.375 21.4658 1.375H2.2206Z" fill="#1234AD"/>
</g>
</svg>
